ply
format ascii 1.0
comment first comment line
comment second comment line
element vertex 396
property float x
property float y
property float z
element face 248
property list int int vertex_index
end_header
-2.75412 -170.276 -9.02118
2.7543 -170.276 -9.02118
3.75582 -160.261 -0.508338
-3.75564 -160.261 -0.508338
-0.949265 -178.959 -20.0943
0.498231 -178.958 -20.0943
9.55645 -163.504 -17.8007
-9.94766 -163.476 -17.8007
4.25658 -136.165 9.71036
-4.75715 -136.165 9.71036
16.3681 -130.158 -9.70562
-16.6713 -130.186 -9.70562
3.75582 -95.0042 14.4209
-3.75564 -95.0043 14.4209
18.1619 -84.9647 2.45858
-18.4967 -84.9647 2.45862
-3.75564 -95.0042 14.4209
3.75582 -95.0042 14.4209
2.7543 -86.8267 14.4977
-2.75412 -86.8268 14.4977
-0.498051 -31.686 11.2463
0.0470165 -31.686 11.2463
-15.0846 -155.413 -32.4018
-15.0846 -127.242 -32.4018
-7.85808 -152.535 -47.7654
17.9928 -155.413 -32.4018
7.85808 -152.535 -47.7654
12.382 -119.81 -47.9123
17.9928 -126.772 -32.4018
-11.8826 -119.81 -47.9123
17.1702 -50.8938 -39.2169
7.62304 -67.2856 -56.6663
7.62304 38.556 -40.9795
-15.9071 -50.8938 -39.2169
-7.9462 38.556 -40.9795
-8.15182 -67.1387 -56.6663
7.62304 -116.197 -56.6663
-8.15182 -116.197 -56.6663
-0.220328 -205 -27.0554
-0.220328 -178.944 -20.0639
-9.94377 -163.521 -17.8019
-18.4922 -84.9699 2.43809
-0.220328 -32.7395 11.2216
-41.9342 15.202 9.57653
-18.4922 -170.66 -24.9403
-16.6708 -130.179 -9.69416
-53.332 -91.8733 -16.48
9.56187 -163.521 -17.8019
18.169 -84.9699 2.43809
41.611 15.202 9.57653
18.169 -170.66 -24.9403
16.3477 -130.179 -9.69416
52.9502 -91.8733 -16.48
-93.4008 15.8483 -15.6574
93.0189 15.8483 -15.6574
17.9928 -126.772 -32.4018
52.9502 -91.8733 -16.48
18.169 -170.66 -24.9403
-53.332 -91.8733 -16.48
-15.0846 -127.242 -32.4018
-18.4922 -170.66 -24.9403
-15.0846 -155.413 -32.4018
-15.9071 -50.8938 -39.2169
-93.4008 15.8483 -15.6574
-61.1166 38.7322 -30.6098
93.0189 15.8483 -15.6574
17.1702 -50.8938 -39.2169
62.3504 38.7322 -30.6098
7.62304 38.556 -40.9795
-7.9462 38.556 -40.9795
17.9928 -155.413 -32.4018
7.62304 -67.2856 -56.6663
-8.15182 -67.1387 -56.6663
7.62304 -116.197 -56.6663
-8.15182 -116.197 -56.6663
17.9928 -155.413 -32.4018
17.9928 -126.772 -32.4018
18.169 -170.66 -24.9403
2.03047 -152.51 -38.1277
2.03047 -152.51 -34.9691
5.64023 -152.51 -34.9691
5.64023 -152.51 -38.1277
-5.41457 -152.285 -38.0713
-5.41457 -152.285 -34.9127
-1.80481 -152.285 -34.9127
-1.80481 -152.285 -38.0713
-15.0846 -155.413 -32.4018
-7.85808 -152.535 -47.7654
7.85808 -152.535 -47.7654
17.9928 -155.413 -32.4018
-11.8826 -119.81 -47.9123
-8.15182 -116.197 -56.6663
7.62304 -116.197 -56.6663
12.382 -119.81 -47.9123
12.382 -119.81 -47.9123
7.85808 -152.535 -47.7654
-7.85808 -152.535 -47.7654
-11.8826 -119.81 -47.9123
-117.812 159.585 -13.9242
-93.4008 15.8483 -15.6574
-117.812 160.407 0.17629
-54.3308 194.924 -18.8887
-41.9342 189.695 -32.2253
-76.7153 194.924 -18.8887
-54.3308 194.924 -18.8887
-48.9844 194.307 1.49821
-41.9342 189.695 -32.2253
-41.9342 189.695 16.5975
-48.9844 194.307 1.49821
-67.315 194.924 7.84342
-114.287 189.636 -13.9242
-117.812 159.585 -13.9242
-76.7153 194.924 -18.8887
-114.287 189.636 -13.9242
-41.9342 189.695 16.5975
-48.9844 194.307 1.49821
93.0189 15.8483 -15.6574
118.958 159.585 -13.9242
118.958 160.554 0.17629
-94.2821 189.313 13.1311
-80.1229 195.1 1.49821
-116.02 189.695 1.46884
-67.315 194.924 7.84342
-76.8328 189.636 20.1226
62.3504 38.7322 -30.6098
84.0886 48.2794 -63.6871
92.0789 43.9611 -20.0638
-61.2929 173.568 -32.4016
-81.2098 150.86 -63.687
-87.3787 173.568 -25.3808
-83.0017 48.2794 -63.6871
-61.1166 38.7322 -30.6098
-90.7863 43.9611 -20.0638
88.4657 173.568 -25.3808
82.5317 150.86 -63.687
62.3504 173.568 -32.4016
43.2561 189.695 -32.2253
51.9807 194.924 -18.9768
74.5414 194.924 -18.9768
49.6013 196.422 1.46884
51.9807 194.924 -18.9768
43.2561 189.695 -32.2253
78.0959 189.636 20.1226
63.3492 194.924 7.78467
43.2561 189.636 16.5975
74.5414 194.924 -18.9768
117.342 189.636 -13.9242
43.2561 189.695 -32.2253
43.2561 189.636 16.5975
49.6013 196.422 1.46884
77.9197 194.307 1.46884
95.4571 188.667 13.1311
117.342 189.695 1.46884
63.3492 194.924 7.78467
49.6013 196.422 1.46884
-116.02 189.695 1.46884
-114.287 189.636 -13.9242
41.4348 138.845 -32.2254
41.4348 138.845 16.5974
43.2561 189.636 16.5975
-40.4066 138.845 -32.2254
-41.9342 189.695 -32.2253
-41.9342 189.695 16.5975
-40.4066 138.845 16.5974
117.342 189.636 -13.9242
117.342 189.695 1.46884
118.958 160.554 0.17629
118.958 159.585 -13.9242
117.342 189.636 -13.9242
74.5414 194.924 -18.9768
77.9197 194.307 1.46884
117.342 189.695 1.46884
95.4571 188.667 13.1311
77.9197 194.307 1.46884
63.3492 194.924 7.78467
78.0959 189.636 20.1226
-67.315 194.924 7.84342
-80.1229 195.1 1.49821
-94.2821 189.313 13.1311
-76.8328 189.636 20.1226
-76.7153 194.924 -18.8887
-114.287 189.636 -13.9242
-80.1229 195.1 1.49821
-54.3015 90.1107 21.8851
-41.9342 15.202 9.57653
-40.4066 138.845 16.5974
-85.5868 144.074 32.2548
-117.812 160.407 0.17629
-99.511 90.1107 14.923
-93.4008 15.8483 -15.6574
-83.7655 34.3258 16.5974
93.0189 15.8483 -15.6574
92.0789 43.9611 -20.0638
118.958 159.585 -13.9242
62.3504 173.568 -32.4016
43.2561 189.695 -32.2253
117.342 189.636 -13.9242
-76.8328 189.636 20.1226
-94.2821 189.313 13.1311
41.4348 138.845 16.5974
55.4177 90.1107 21.8851
86.85 144.074 32.2548
88.4657 173.568 -25.3808
85.058 34.3258 16.5974
93.0189 15.8483 -15.6574
100.627 90.1107 14.923
41.611 15.202 9.57653
-41.9342 189.695 16.5975
78.0959 189.636 20.1226
43.2561 189.636 16.5975
-117.812 159.585 -13.9242
-87.3787 173.568 -25.3808
-90.7863 43.9611 -20.0638
-93.4008 15.8483 -15.6574
41.4348 138.845 -32.2254
95.4571 188.667 13.1311
-61.1166 38.7322 -30.6098
118.958 160.554 0.17629
62.3504 38.7322 -30.6098
-116.02 189.695 1.46884
-114.287 189.636 -13.9242
-61.2929 173.568 -32.4016
-41.9342 189.695 -32.2253
117.342 189.695 1.46884
-40.4066 138.845 -32.2254
84.0886 48.2794 -63.6871
62.3504 38.7322 -30.6098
82.5317 150.86 -63.687
62.3504 173.568 -32.4016
-61.2929 173.568 -32.4016
-61.1166 38.7322 -30.6098
-81.2098 150.86 -63.687
-83.0017 48.2794 -63.6871
-83.0017 48.2794 -63.6871
-90.7863 43.9611 -20.0638
-87.3787 173.568 -25.3808
-81.2098 150.86 -63.687
84.0886 48.2794 -63.6871
82.5317 150.86 -63.687
88.4657 173.568 -25.3808
92.0789 43.9611 -20.0638
-61.1166 38.7322 -30.6098
-40.4066 138.845 -32.2254
-7.9462 38.556 -40.9795
7.62304 38.556 -40.9795
41.4348 138.845 -32.2254
62.3504 38.7322 -30.6098
41.4348 138.845 16.5974
-40.4066 138.845 16.5974
-41.9342 15.202 9.57653
41.611 15.202 9.57653
41.4348 138.845 -32.2254
-40.4066 138.845 -32.2254
-40.4066 138.845 16.5974
41.4348 138.845 16.5974
-99.511 90.1107 14.923
-83.7655 34.3258 16.5974
-142.459 65.758 60.1032
-142.459 65.758 60.1032
-54.3015 90.1107 21.8851
-141.342 131.942 63.6871
-83.7655 34.3258 16.5974
-85.5868 144.074 32.2548
-85.5868 144.074 32.2548
85.058 34.3258 16.5974
100.627 90.1107 14.923
142.459 65.758 60.1032
55.4177 90.1107 21.8851
142.459 65.758 60.1032
142.459 131.942 63.6871
85.058 34.3258 16.5974
86.85 144.074 32.2548
86.85 144.074 32.2548
-67.315 205 5.25836
-52.6857 205 0.146961
-77.8609 205 0.235083
-67.315 194.924 7.84342
-67.315 205 5.25836
-80.1229 195.1 1.49821
-67.315 205 5.25836
-77.8609 205 0.235083
-52.6857 205 0.146961
-67.315 205 5.25836
-67.315 194.924 7.84342
-48.9844 194.307 1.49821
-56.6221 205 -15.3048
-75.2465 205 -15.3048
-52.6857 205 0.146961
-48.9844 194.307 1.49821
-54.3308 194.924 -18.8887
-56.6221 205 -15.3048
-52.6857 205 0.146961
-54.3308 194.924 -18.8887
-76.7153 194.924 -18.8887
-75.2465 205 -15.3048
-56.6221 205 -15.3048
-75.2465 205 -15.3048
-77.8609 205 0.235083
53.2733 205 0.176335
63.3492 205 4.58271
74.8352 205 -0.558062
63.3492 194.924 7.78467
63.3492 205 4.58271
49.6013 196.422 1.46884
63.3492 205 4.58271
53.2733 205 0.176335
74.5414 194.924 -18.9768
51.9807 194.924 -18.9768
55.5646 205 -15.3342
72.4264 205 -15.3342
55.5646 205 -15.3342
53.2733 205 0.176335
72.4264 205 -15.3342
55.5646 205 -15.3342
51.9807 194.924 -18.9768
53.2733 205 0.176335
74.8352 205 -0.558062
63.3492 205 4.58271
63.3492 194.924 7.78467
77.9197 194.307 1.46884
74.5414 194.924 -18.9768
72.4264 205 -15.3342
74.8352 205 -0.558062
77.9197 194.307 1.46884
2.03047 -161.084 -34.9691
5.64023 -161.084 -34.9691
5.64023 -152.51 -34.9691
2.03047 -152.51 -34.9691
2.03047 -161.084 -38.1277
2.03047 -152.51 -38.1277
5.64023 -152.51 -38.1277
5.64023 -161.084 -38.1277
5.64023 -161.084 -38.1277
5.64023 -161.084 -34.9691
2.03047 -161.084 -34.9691
5.64023 -161.084 -38.1277
5.64023 -152.51 -38.1277
5.64023 -161.084 -34.9691
2.03047 -161.084 -34.9691
2.03047 -152.51 -34.9691
2.03047 -152.51 -38.1277
2.03047 -159.279 -41.8501
5.64023 -159.279 -41.8501
5.64023 -150.706 -41.8501
2.03047 -150.706 -41.8501
2.03047 -159.279 -45.0086
2.03047 -150.706 -45.0086
5.64023 -150.706 -45.0086
5.64023 -159.279 -45.0086
2.03047 -159.279 -45.0086
5.64023 -159.279 -45.0086
5.64023 -159.279 -41.8501
2.03047 -159.279 -41.8501
5.64023 -159.279 -45.0086
5.64023 -150.706 -45.0086
5.64023 -150.706 -41.8501
5.64023 -159.279 -41.8501
2.03047 -159.279 -41.8501
2.03047 -150.706 -41.8501
2.03047 -150.706 -45.0086
-5.41457 -160.858 -34.9127
-1.80481 -160.858 -34.9127
-1.80481 -152.285 -34.9127
-5.41457 -152.285 -34.9127
-5.41457 -160.858 -38.0713
-5.41457 -152.285 -38.0713
-1.80481 -152.285 -38.0713
-1.80481 -160.858 -38.0713
-1.80481 -160.858 -38.0713
-1.80481 -160.858 -34.9127
-5.41457 -160.858 -34.9127
-1.80481 -160.858 -38.0713
-1.80481 -152.285 -38.0713
-1.80481 -160.858 -34.9127
-5.41457 -160.858 -34.9127
-5.41457 -152.285 -34.9127
-5.41457 -152.285 -38.0713
-5.41457 -159.053 -41.7937
-1.80481 -159.053 -41.7937
-1.80481 -150.48 -41.7937
-5.41457 -150.48 -41.7937
-5.41457 -159.053 -44.9522
-5.41457 -150.48 -44.9522
-1.80481 -150.48 -44.9522
-1.80481 -159.053 -44.9522
-5.41457 -159.053 -44.9522
-1.80481 -159.053 -44.9522
-1.80481 -159.053 -41.7937
-5.41457 -159.053 -41.7937
-1.80481 -159.053 -44.9522
-1.80481 -150.48 -44.9522
-1.80481 -150.48 -41.7937
-1.80481 -159.053 -41.7937
-5.41457 -159.053 -41.7937
-5.41457 -150.48 -41.7937
-5.41457 -150.48 -44.9522
3 0 1 2 
3 0 2 3 
3 4 5 1 
3 4 1 0 
3 5 6 2 
3 5 2 1 
3 4 0 3 
3 4 3 7 
3 3 2 8 
3 3 8 9 
3 6 10 8 
3 6 8 2 
3 7 3 9 
3 7 9 11 
3 9 8 12 
3 9 12 13 
3 10 14 12 
3 10 12 8 
3 11 9 13 
3 11 13 15 
3 16 17 18 
3 16 18 19 
3 20 19 18 
3 20 18 21 
3 14 21 18 
3 14 18 17 
3 15 16 19 
3 22 23 24 
3 25 26 27 
3 28 25 27 
3 23 29 24 
3 30 31 32 
3 28 27 30 
3 23 33 29 
3 33 34 35 
3 36 31 30 
3 36 30 27 
3 35 37 29 
3 35 29 33 
3 38 39 40 
3 41 42 43 
3 38 40 44 
3 45 41 46 
3 39 38 47 
3 42 48 49 
3 47 38 50 
3 48 51 52 
3 42 49 43 
3 47 50 51 
3 50 52 51 
3 41 43 53 
3 41 53 46 
3 45 46 44 
3 45 44 40 
3 54 49 48 
3 54 48 52 
3 55 56 57 
3 58 59 60 
3 59 61 60 
3 62 63 64 
3 65 66 67 
3 66 68 67 
3 64 69 62 
3 62 58 63 
3 38 61 70 
3 56 66 65 
3 55 66 56 
3 58 62 59 
3 38 70 57 
3 60 61 38 
3 69 68 71 
3 69 71 72 
3 72 71 73 
3 72 73 74 
3 75 76 77 
3 78 79 80 
3 78 80 81 
3 82 83 84 
3 82 84 85 
3 86 87 88 
3 86 88 89 
3 90 91 92 
3 90 92 93 
3 94 95 96 
3 98 99 100 
3 101 102 103 
3 104 105 106 
3 107 108 109 
3 110 111 100 
3 112 102 113 
3 114 102 115 
3 116 117 118 
3 119 120 121 
3 107 122 123 
3 124 125 126 
3 127 128 129 
3 130 131 132 
3 133 134 135 
3 136 137 138 
3 139 140 141 
3 142 143 144 
3 136 145 146 
3 147 148 149 
3 150 151 152 
3 153 154 144 
3 155 156 100 
3 136 157 158 
3 136 158 159 
3 160 161 162 
3 160 162 163 
3 164 165 166 
3 164 166 167 
3 168 169 170 
3 168 170 171 
3 172 173 174 
3 172 174 175 
3 176 177 178 
3 176 178 179 
3 180 181 121 
3 180 121 182 
3 183 184 185 
3 183 185 186 
3 186 187 188 
3 188 187 189 
3 189 190 188 
3 189 184 190 
3 190 184 183 
3 191 192 193 
3 194 195 196 
3 186 197 198 
3 199 200 201 
3 202 194 196 
3 203 204 205 
3 206 204 203 
3 206 203 200 
3 186 185 197 
3 197 185 207 
3 199 208 209 
3 206 200 199 
3 210 211 212 
3 199 201 208 
3 210 212 213 
3 214 195 194 
3 201 215 208 
3 213 212 216 
3 196 193 202 
3 201 217 215 
3 218 214 194 
3 191 218 192 
3 192 202 193 
3 186 198 219 
3 210 220 211 
3 221 211 222 
3 217 223 215 
3 187 186 219 
3 205 204 217 
3 216 221 222 
3 211 220 222 
3 224 216 222 
3 201 205 217 
3 225 226 227 
3 226 228 227 
3 229 230 231 
3 230 232 231 
3 233 234 235 
3 233 235 236 
3 237 238 239 
3 237 239 240 
3 241 242 243 
3 244 245 246 
3 242 245 244 
3 242 244 243 
3 247 248 249 
3 247 249 250 
3 251 252 253 
3 255 256 257 
3 258 259 260 
3 258 261 259 
3 259 262 260 
3 263 255 260 
3 264 265 266 
3 267 268 269 
3 270 268 267 
3 271 267 269 
3 265 272 269 
3 273 274 275 
3 276 277 278 
3 279 280 278 
3 281 282 283 
3 281 283 284 
3 285 286 275 
3 285 275 287 
3 288 289 290 
3 288 290 291 
3 292 293 294 
3 292 294 295 
3 296 293 278 
3 298 299 300 
3 301 302 303 
3 304 305 303 
3 306 307 308 
3 306 308 309 
3 310 311 300 
3 310 300 312 
3 313 314 303 
3 313 303 315 
3 316 317 318 
3 316 318 319 
3 320 321 322 
3 324 325 326 
3 324 326 327 
3 328 329 330 
3 328 330 331 
3 328 332 333 
3 328 333 334 
3 335 336 326 
3 335 326 337 
3 328 338 339 
3 328 339 340 
3 341 342 343 
3 341 343 344 
3 345 346 347 
3 345 347 348 
3 349 350 351 
3 349 351 352 
3 353 354 355 
3 353 355 356 
3 349 357 358 
3 349 358 359 
3 360 361 362 
3 360 362 363 
3 364 365 366 
3 364 366 367 
3 364 368 369 
3 364 369 370 
3 371 372 362 
3 371 362 373 
3 364 374 375 
3 364 375 376 
3 377 378 379 
3 377 379 380 
3 381 382 383 
3 381 383 384 
3 385 386 387 
3 385 387 388 
3 389 390 391 
3 389 391 392 
3 385 393 394 
